<?xml version="1.0" encoding="UTF-8" standalone="no"?>
<!DOCTYPE svg PUBLIC "-//W3C//DTD SVG 1.1//EN" "http://www.w3.org/Graphics/SVG/1.1/DTD/svg11.dtd">
<svg version="1.1" xmlns="http://www.w3.org/2000/svg" xmlns:xlink="http://www.w3.org/1999/xlink" preserveAspectRatio="xMidYMid meet" viewBox="0 0 640 640" width="640" height="640"><defs><path d="M289.23 286.92L291.55 286.51L293.83 286.01L296.08 285.43L298.3 284.78L300.47 284.04L302.6 283.22L304.69 282.33L306.73 281.36L308.73 280.32L310.68 279.21L312.58 278.03L314.43 276.79L316.24 275.48L317.98 274.11L319.68 272.68L321.32 271.19L322.9 269.64L324.42 268.03L325.88 266.37L327.28 264.67L328.62 262.91L329.89 261.1L331.1 259.25L332.24 257.35L333.31 255.41L334.31 253.43L335.23 251.41L336.09 249.35L336.87 247.26L337.57 245.14L338.2 242.98L338.74 240.79L339.21 238.58L339.59 236.34L339.89 234.08L340.1 231.8L340.23 229.49L340.27 227.17L340.22 224.83L340.08 222.48L340 221.5L340 216.97L339.95 214.49L339.8 212.04L339.56 209.61L339.22 207.21L338.79 204.84L338.26 202.5L337.65 200.2L336.96 197.94L336.17 195.71L335.31 193.52L334.36 191.38L333.33 189.28L332.23 187.23L331.05 185.22L329.79 183.27L328.47 181.36L327.07 179.51L325.61 177.72L324.08 175.99L322.49 174.31L320.83 172.69L319.11 171.14L317.34 169.66L315.51 168.24L313.62 166.89L311.68 165.61L309.69 164.4L307.65 163.27L305.57 162.22L303.43 161.25L301.26 160.35L299.04 159.54L296.79 158.81L294.49 158.17L292.16 157.62L289.8 157.16L287.4 156.79L284.98 156.51L282.52 156.34L280.04 156.25L260 156L200 155L200 291.5L260 291.5L289.23 286.92ZM160 121.5L200 121.5L260 120L293.03 121.65L296.77 121.91L300.47 122.31L304.13 122.85L307.73 123.53L311.28 124.35L314.78 125.3L318.23 126.38L321.61 127.58L324.93 128.91L328.19 130.35L331.38 131.92L334.5 133.6L337.55 135.39L340.52 137.29L343.41 139.3L346.23 141.41L348.96 143.63L351.6 145.94L354.15 148.34L356.62 150.84L358.98 153.43L361.26 156.1L363.43 158.86L365.5 161.7L367.46 164.62L369.32 167.61L371.07 170.68L372.7 173.81L374.22 177.01L375.62 180.28L376.9 183.61L378.05 186.99L379.08 190.44L379.98 193.93L380.75 197.47L381.38 201.07L381.87 204.7L382.23 208.38L382.44 212.09L382.51 215.84L382.5 221.5L382.03 230.92L381.83 233.93L381.53 236.91L381.13 239.86L380.64 242.79L380.04 245.68L379.36 248.54L378.58 251.36L377.72 254.15L376.76 256.89L375.72 259.6L374.59 262.26L373.38 264.89L372.08 267.46L370.7 269.99L369.25 272.46L367.71 274.89L366.1 277.26L364.42 279.58L362.66 281.84L360.82 284.04L358.92 286.18L356.95 288.26L354.92 290.28L352.81 292.23L350.64 294.11L348.42 295.92L346.12 297.67L343.77 299.33L341.37 300.93L338.9 302.44L336.38 303.88L333.81 305.24L331.19 306.52L328.51 307.71L325.79 308.82L323.02 309.84L320.2 310.76L317.34 311.6L314.44 312.35L311.5 313L316.99 321.63L317 321.63L317.16 321.9L318.5 324L318.41 324L406.17 471.5L359.5 471.5L273.71 324.57L200 325.5L200 471.5L160 471.5L160 121.5Z" id="i1PWsLAJWd"></path><path d="M353.83 339.26L356.08 338.68L358.3 338.03L360.47 337.29L362.6 336.47L364.69 335.58L366.73 334.61L368.73 333.57L370.68 332.46L372.58 331.28L374.43 330.04L376.24 328.73L377.98 327.36L379.68 325.93L381.32 324.44L382.9 322.89L384.42 321.28L385.88 319.62L387.28 317.92L388.62 316.16L389.89 314.35L391.1 312.5L392.24 310.6L393.31 308.66L394.31 306.68L395.23 304.66L396.09 302.6L396.87 300.51L397.57 298.39L398.2 296.23L398.74 294.04L399.21 291.83L399.59 289.59L399.89 287.33L400.1 285.05L400.23 282.74L400.27 280.42L400.22 278.08L400.08 275.73L400 274.75L400 270.22L399.95 267.74L399.8 265.29L399.56 262.86L399.22 260.46L398.79 258.09L398.26 255.75L397.65 253.45L396.96 251.19L396.17 248.96L395.31 246.77L394.36 244.63L393.33 242.53L392.23 240.48L391.05 238.47L389.79 236.52L388.47 234.61L387.07 232.76L385.61 230.97L384.08 229.24L382.49 227.56L380.83 225.94L379.11 224.39L377.34 222.91L375.51 221.49L373.62 220.14L371.68 218.86L369.69 217.65L367.65 216.52L365.57 215.47L363.43 214.5L361.26 213.6L359.04 212.79L356.79 212.06L354.49 211.42L352.16 210.87L349.8 210.41L347.4 210.04L344.98 209.76L342.52 209.59L340.04 209.5L320 209.25L260 208.25L260 344.75L320 344.75L349.23 340.17L351.55 339.76L351.55 339.76L353.83 339.26ZM320 173.25L353.03 174.9L356.77 175.16L360.47 175.56L364.13 176.1L367.73 176.78L371.28 177.6L374.78 178.55L378.23 179.63L381.61 180.83L384.93 182.16L388.19 183.6L391.38 185.17L394.5 186.85L397.55 188.64L400.52 190.54L403.41 192.55L406.23 194.66L408.96 196.88L411.6 199.19L414.15 201.59L416.62 204.09L418.98 206.68L421.26 209.35L423.43 212.11L425.5 214.95L427.46 217.87L429.32 220.86L431.07 223.93L432.7 227.06L434.22 230.26L435.62 233.53L436.9 236.86L438.05 240.24L439.08 243.69L439.98 247.18L440.75 250.72L441.38 254.32L441.87 257.95L442.23 261.63L442.44 265.34L442.51 269.09L442.5 274.75L442.03 284.17L441.83 287.18L441.53 290.16L441.13 293.11L440.64 296.04L440.04 298.93L439.36 301.79L438.58 304.61L437.72 307.4L436.76 310.14L435.72 312.85L434.59 315.51L433.38 318.14L432.08 320.71L430.7 323.24L429.25 325.71L427.71 328.14L426.1 330.51L424.42 332.83L422.66 335.09L420.82 337.29L418.92 339.43L416.95 341.51L414.92 343.53L412.81 345.48L410.64 347.36L408.42 349.17L406.12 350.92L403.77 352.58L401.37 354.18L398.9 355.69L396.38 357.13L393.81 358.49L391.19 359.77L388.51 360.96L385.79 362.07L383.02 363.09L380.2 364.01L377.34 364.85L374.44 365.6L371.5 366.25L376.99 374.88L377 374.88L377.16 375.15L378.5 377.25L378.41 377.25L466.17 524.75L419.5 524.75L333.71 377.82L260 378.75L260 524.75L220 524.75L220 174.75L260 174.75L260 174.75L320 173.25Z" id="d1iDjjKeNs"></path></defs><g><g><g><g><use xlink:href="#i1PWsLAJWd" opacity="0.63" fill-opacity="0" stroke="#060606" stroke-width="8" stroke-opacity="1"></use></g></g><g><g><use xlink:href="#d1iDjjKeNs" opacity="1" fill-opacity="0" stroke="#000000" stroke-width="9" stroke-opacity="1"></use></g></g></g></g></svg>